<?xml version="1.0" encoding="UTF-8"?>
<svg id="Camada_2" data-name="Camada 2" xmlns="http://www.w3.org/2000/svg" xmlns:xlink="http://www.w3.org/1999/xlink" viewBox="0 0 3589.33 1081.27">
  <defs>
    <style>
      .cls-1 {
        fill: none;
      }

      .cls-1, .cls-2 {
        stroke-width: 0px;
      }

      .cls-3 {
        clip-path: url(#clippath);
      }

      .cls-2 {
        fill: #fff;
        opacity: .05;
      }
    </style>
    <clipPath id="clippath">
      <rect class="cls-1" x="0" width="3589.33" height="1081.27"/>
    </clipPath>
  </defs>
  <g id="Camada_1-2" data-name="Camada 1">
    <g class="cls-3">
      <path class="cls-2" d="M3068.84,491.7c0-409.14-304.79-713.92-713.92-713.92S1641,82.56,1641,491.7c0,114.98,24.08,221.72,67.77,315.77h-136.4V-222.22H366.69v.13C-36.76-216.56-336,86.32-336,491.7S-31.21,1205.61,377.92,1205.61s713.92-304.78,713.92-713.91c0-114.98-24.08-221.72-67.77-315.77h136.44v1029.69h1205.68v-.14c403.43-5.55,702.65-308.42,702.65-713.78ZM693.69,491.7c0,181.22-134.54,315.77-315.77,315.77S62.15,672.91,62.15,491.7,196.69,175.93,377.92,175.93s315.77,134.54,315.77,315.77ZM2354.92,807.47c-181.23,0-315.77-134.55-315.77-315.77s134.54-315.77,315.77-315.77,315.77,134.54,315.77,315.77-134.54,315.77-315.77,315.77Z"/>
    </g>
  </g>
</svg>