<?xml version="1.0" encoding="UTF-8"?>
<svg id="Camada_1" data-name="Camada 1" xmlns="http://www.w3.org/2000/svg" version="1.1" viewBox="0 0 1080 1080">
  <defs>
    <style>
      .cls-1 {
        fill: #fff;
      }

      .cls-1, .cls-2 {
        stroke-width: 0px;
      }

      .cls-2 {
        fill: #0ce220;
      }
    </style>
  </defs>
  <path class="cls-2" d="M404.7,381.4c0-28.3,21.2-49.5,50.7-49.5s49.5,21.2,49.5,49.5-21.2,50.7-49.5,50.7-50.7-21.8-50.7-50.7Z"/>
  <path class="cls-2" d="M833.2,381.4c0-28.3,21.2-49.5,50.7-49.5s49.5,21.2,49.5,49.5-21.2,50.7-49.5,50.7-50.7-21.8-50.7-50.7Z"/>
  <g>
    <path class="cls-1" d="M1038,592.6c0-88.7-66.1-154.7-154.7-154.7s-154.7,66.1-154.7,154.7h0c0,24.9,5.2,48.1,14.7,68.4h0s-29.6,0-29.6,0v-217.2h0v-5.9h-257.9c-.3,0-.6,0-.9,0s-.6,0-.9,0h-1.5,0c-87.5,1.2-152.3,66.8-152.3,154.7h0c0,23,4.4,44.4,12.6,63.6h0s-104.8,0-104.8,0l133.9-212.4H68v91h113.1l-138.1,212.4h405.7c2,0,4.1.1,6.2.1,88.7,0,154.7-66.1,154.7-154.7s-5.2-48-14.7-68.4h0s29.6,0,29.6,0v136.9h0v86.3h269.9l-.6-.3c83.4-5,144.3-69.3,144.3-154.4ZM454.8,661.1c-39.3,0-68.4-29.2-68.4-68.4s29.2-68.4,68.4-68.4,68.4,29.2,68.4,68.4-29.2,68.4-68.4,68.4ZM883.3,661.1c-39.3,0-68.4-29.2-68.4-68.4s29.2-68.4,68.4-68.4,68.4,29.2,68.4,68.4-29.2,68.4-68.4,68.4Z"/>
    <rect class="cls-1" x="177.3" y="529.4" width="7.9" height="7.9"/>
  </g>
</svg>